# xmcd
#
# Track frame offsets:
#	150
#	14478
#	20791
#	28043
#	46458
#	72047
#	113043
#	139528
#
# Disc length: 2098
#
# Revision: 3
# Processed by: cddbd v1.5.1PL0 Copyright (c) Steve Scherf et al.
# Submitted via: CDex 1.50Beta7
# Normalized: r2:TRMNUM
#
DISCID=67083008
DTITLE=Calawahake - Songs From the Secret Place
DYEAR=2002
DGENRE=New Age
TTITLE0=Water Magick
TTITLE1=Firedanse
TTITLE2=Wind Conjury
TTITLE3=Spirit Destiny
TTITLE4=Walking the Wind
TTITLE5=Earth Mother, Sky Father
TTITLE6=Going on a Journey
TTITLE7=Winding Path in the Moonlight
EXTD=YEAR: 2002
EXTT0=
EXTT1=
EXTT2=
EXTT3=
EXTT4=
EXTT5=
EXTT6=
EXTT7=
PLAYORDER=
